# AST/ASF file generated using VICON BodyLanguage
# -----------------------------------------------
:version 1.10
:name VICON
:units
  mass 1.0
  length 0.45
  angle deg
:documentation
   .ast/.asf automatically generated from VICON data using
   VICON BodyBuilder and BodyLanguage model FoxedUp or BRILLIANT.MOD
:root
   order TX TY TZ RX RY RZ
   axis XYZ
   position 0 0 0  
   orientation 0 -0 0 
:bonedata
  begin
     id 1 
     name lhipjoint
     direction 0.515797 -0.759363 0.396637 
     length 2.47888 
     axis 0 -0 0  XYZ
  end
  begin
     id 2 
     name lfemur
     direction 0.34202 -0.939693 0  
     length 6.81885  
     axis 0 -0 20  XYZ
    dof rx ry rz
    limits (-160.0 20.0)
           (-70.0 70.0)
           (-60.0 70.0)
  end
  begin
     id 3 
     name ltibia
     direction 0.342037 -0.939687 0   
     length 7.89258   
     axis 0 -0 20   XYZ
    dof rx
    limits (-10.0 170.0)
  end
  begin
     id 4 
     name lfoot
     direction 0.173497 -0.476678 0.861787   
     length 2.51543   
     axis -90 -1.13533e-015 20   XYZ
    dof rx rz
    limits (-45.0 90.0)
           (-70.0 20.0)
  end
  begin
     id 5 
     name ltoes
     direction 1.53564e-011 -4.21897e-011 1   
     length 1.21388   
     axis -90 -1.13533e-015 20   XYZ
    dof rx
    limits (-90.0 20.0)
  end
  begin
     id 6 
     name rhipjoint
     direction -0.489454 -0.772941 0.403729   
     length 2.43534  
     axis 0 -0 0  XYZ 
  end
  begin
     id 7 
     name rfemur
     direction -0.34202 -0.939693 0   
     length 7.10357   
     axis 0 -0 -20   XYZ
    dof rx ry rz
    limits (-160.0 20.0)
           (-70.0 70.0)
           (-70.0 60.0)
  end
  begin
     id 8 
     name rtibia
     direction -0.34202 -0.939693 0   
     length 9.16127   
     axis 0 -0 -20   XYZ
    dof rx
    limits (-10.0 170.0)
 end
 begin
     id 9 
     name rfoot
     direction -0.270974 -0.748671 0.605033   
     length 1.74894  
     axis -90 1.13533e-015 -20   XYZ
    dof rx rz
    limits (-45.0 90.0)
           (-20.0 70.0)
  end
  begin
     id 10 
     name rtoes
     direction -1.53557e-011 -4.21759e-011 1   
     length 0.787585   
     axis -90 1.13533e-015 -20   XYZ
    dof rx
    limits (-90.0 20.0)
  end
  begin
     id 11 
     name lowerback
     direction -0.0140249 0.999561 0.0260968   
     length 2.16963   
     axis 0 -0 0   XYZ
    dof rx ry rz
    limits (-20.0 45.0)
           (-30.0 30.0)
           (-30.0 30.0)
  end
  begin
     id 12 
     name upperback
     direction 0.00860018 0.999959 -0.002711   
     length 2.1726   
     axis 0 -0 0   XYZ
    dof rx ry rz
    limits (-20.0 45.0)
           (-30.0 30.0)
           (-30.0 30.0)
  end
  begin
     id 13 
     name thorax
     direction 0.015211 0.999782 -0.0143191   
     length 2.17061   
     axis 0 -0 0   XYZ
    dof rx ry rz
    limits (-20.0 45.0)
           (-30.0 30.0)
           (-30.0 30.0)
  end
  begin
     id 14 
     name lowerneck
     direction -0.0140143 0.999447 0.030145   
     length 2.26749   
     axis 0 -0 0   XYZ
    dof rx ry rz
    limits (-20.0 45.0)
           (-30.0 30.0)
           (-30.0 30.0)
  end
  begin
     id 15 
     name upperneck
     direction 0.118062 0.961438 -0.248392   
     length 2.22728   
     axis 0 -0 0   XYZ
    dof rx ry rz
    limits (-20.0 45.0)
           (-30.0 30.0)
           (-30.0 30.0)
  end
  begin
     id 16
     name head
     direction 0.0431885 0.9954 -0.085514  
     length 2.28786  
     axis 0 -0 0   XYZ
    dof rx ry rz
    limits (-20.0 45.0)
           (-30.0 30.0)
           (-30.0 30.0)
  end
  begin
     id 17 
     name lclavicle
     direction 0.912126 0.409548 0.0172323  
     length 4.31571  
     axis 0 -0 0   XYZ
    dof ry rz
    limits (-20.0 10.0)
           (0.0 20.0)
  end
  begin
     id 18 
     name lhumerus
     direction 1 -4.48977e-011 1.93091e-027   
     length 5.13658   
     axis 180 -30 -90   XYZ
    dof rx ry rz
    limits (-60.0 90.0)
           (-90.0 90.0)
           (-90.0 90.0)
  end
  begin
     id 19
     name lradius
     direction 1 -4.48916e-011 6.84018e-027   
     length 3.22473   
     axis 180 -30 -90   XYZ
    dof rx
    limits (-10.0 170.0)
  end
  begin
     id 20
     name lwrist
     direction 1 -4.48987e-011 7.01981e-027   
     length 1.61236   
     axis -4.37994e-015 90 90   XYZ
    dof ry
    limits (-180.0 0.0)
 end
  begin
     id 21 
     name lhand
     direction 1 -4.49037e-011 1.40335e-026   
     length 0.936406   
     axis -8.96029e-015 90 90   XYZ
    dof rx rz
    limits (-90.0 90.0)
           (-45.0 45.0)
  end
  begin
     id 22 
     name lfingers
     direction 1 -4.48886e-011 2.8104e-026   
     length 0.754955   
     axis -1.79203e-014 90 90   XYZ
    dof rx
    limits (0.0 90.0)
  end
  begin
     id 23
     name lthumb
     direction 0.707107 -6.34937e-011 0.707107   
     length 1.08397   
     axis -90 45 -4.48555e-014   XYZ
    dof rx rz
    limits (-45.0 45.0)
           (-45.0 45.0)
  end
  begin
     id 24 
     name rclavicle
     direction -0.947962 0.317997 0.0156638   
     length 4.86918  
     axis 0 -0 0   XYZ 
    dof ry rz
    limits (-10.0 20.0)
           (-20.0 0.0)
  end
  begin
     id 25 
     name rhumerus
     direction -1 -4.48951e-011 2.80534e-018  
     length 5.60911   
     axis 180 30 90   XYZ
    dof rx ry rz
    limits (-90.0 60.0)
           (-90.0 90.0)
           (-90.0 90.0)
  end
  begin
     id 26 
     name rradius
     direction -1 -4.4898e-011 2.11315e-027   
     length 3.38704   
     axis 180 30 90   XYZ
    dof rx
    limits (-10.0 170.0)
  end
  begin
     id 27 
     name rwrist
     direction -1 -4.48933e-011 7.02314e-027   
     length 1.69352   
     axis -4.37994e-015 -90 -90   XYZ
    dof ry
    limits (-180.0 0.0)
  end
  begin
     id 28
     name rhand
     direction -1 -4.48937e-011 1.40458e-026   
     length 0.755878   
     axis -8.96029e-015 -90 -90   XYZ
    dof rx rz
    limits (-90.0 90.0)
           (-45.0 45.0)
  end
  begin
     id 29
     name rfingers
     direction -1 -4.4901e-011 2.80737e-026   
     length 0.609409   
     axis -1.79203e-014 -90 -90   XYZ
    dof rx
    limits (0.0 90.0)
  end
  begin
     id 30
     name rthumb
     direction -0.707107 -6.34968e-011 0.707107   
     length 0.874992   
     axis -90 -45 4.48555e-014   XYZ
    dof rx rz
    limits (-45.0 45.0)
           (-45.0 45.0)
  end
:hierarchy
  begin
    root lhipjoint rhipjoint lowerback
    lhipjoint lfemur
    lfemur ltibia
    ltibia lfoot
    lfoot ltoes
    rhipjoint rfemur
    rfemur rtibia
    rtibia rfoot
    rfoot rtoes
    lowerback upperback
    upperback thorax
    thorax lowerneck lclavicle rclavicle
    lowerneck upperneck
    upperneck head
    lclavicle lhumerus
    lhumerus lradius
    lradius lwrist
    lwrist lhand lthumb
    lhand lfingers
    rclavicle rhumerus
    rhumerus rradius
    rradius rwrist
    rwrist rhand rthumb
    rhand rfingers
  end

#!OML:ASF C:\ViconDB\ViconDB\414\Spring2016\041811\Spring2016.ASF
:FULLY-SPECIFIED
:DEGREES
93
root 11.409 17.2219 23.5065 -168.104 -4.53097 181.049
lowerback 8.49511 3.85853 1.8597
upperback 3.51872 5.01099 1.94935
thorax -1.11788 2.37459 0.507337
lowerneck -10.1463 -2.5057 -11.4202
upperneck 18.6861 -4.57507 12.3627
head 7.93585 -2.12994 5.58508
rclavicle -6.04305e-014 -2.62396e-014
rhumerus -34.7204 10.5165 -90.0299
rradius 109.393
rwrist 11.028
rhand -43.1644 -13.1439
rfingers 7.12502
rthumb -16.0167 -42.5018
lclavicle -6.04305e-014 -2.62396e-014
lhumerus -69.7619 -20.2516 101.347
lradius 71.0534
lwrist -4.67117
lhand -34.3042 16.6886
lfingers 7.12502
lthumb -7.47318 46.5366
rfemur 1.02838 -7.21119 22.0428
rtibia 23.8844
rfoot -167.508 21.3405
rtoes -9.17081
lfemur -50.1475 5.35511 -16
ltibia 83.1992
lfoot -13.9571 -5.12758
ltoes -9.2406
94
root 11.3823 17.2262 23.3073 -167.969 -4.26987 181.667
lowerback 8.79763 3.98661 2.55776
upperback 3.48195 5.23581 1.95743
thorax -1.25719 2.48408 0.0883336
lowerneck -10.2365 -2.47392 -11.136
upperneck 18.3706 -4.51257 12.3525
head 7.835 -2.06855 5.53068
rclavicle -1.66979e-014 -5.56597e-015
rhumerus -33.1622 11.6169 -89.3707
rradius 112.651
rwrist 10.6673
rhand -43.3162 -13.8101
rfingers 7.12502
rthumb -16.1628 -43.1563
lclavicle -1.66979e-014 -5.56597e-015
lhumerus -72.856 -20.643 101.893
lradius 71.0331
lwrist -4.64697
lhand -33.9621 17.1096
lfingers 7.12502
lthumb -7.14303 46.9691
rfemur 1.82207 -6.93195 22.5374
rtibia 23.2812
rfoot -167.101 21.0215
rtoes -8.37898
lfemur -51.9468 5.69294 -15.7433
ltibia 82.3854
lfoot -14.7422 -5.06499
ltoes -8.54666
95
root 11.3507 17.2469 23.1017 -167.411 -3.59861 181.301
lowerback 8.65057 4.21449 2.15456
upperback 3.43511 5.51836 1.66876
thorax -1.23161 2.63393 -0.00278545
lowerneck -10.3288 -2.44007 -10.9171
upperneck 18.0178 -4.43178 12.3589
head 7.72236 -2.00095 5.49468
rclavicle -1.15295e-014 4.21423e-014
rhumerus -31.3731 12.7381 -88.4347
rradius 115.543
rwrist 10.1109
rhand -43.2755 -13.671
rfingers 7.12502
rthumb -16.1237 -43.0203
lclavicle -1.15295e-014 4.21423e-014
lhumerus -76.0221 -21.1389 102.808
lradius 71.1983
lwrist -3.73424
lhand -34.0968 17.2427
lfingers 7.12502
lthumb -7.27298 47.0977
rfemur 2.2674 -6.58258 21.8104
rtibia 22.7152
rfoot -166.392 20.8835
rtoes -7.88217
lfemur -53.7049 5.98112 -16.7276
ltibia 81.1273
lfoot -15.5344 -4.51239
ltoes -8.64361
96
root 11.3212 17.2637 22.8854 -167.222 -3.07989 181.373
lowerback 8.80131 4.39624 2.12063
upperback 3.42717 5.75972 1.60267
thorax -1.31579 2.753 -0.0860119
lowerneck -10.4279 -2.40478 -10.8562
upperneck 17.8332 -4.33819 12.3301
head 7.66695 -1.94413 5.47943
rclavicle 1.11717e-013 3.57812e-014
rhumerus -29.6204 13.8369 -87.3323
rradius 118.339
rwrist 9.59783
rhand -43.2647 -13.5562
rfingers 7.12502
rthumb -16.1132 -42.9063
lclavicle 1.11717e-013 3.57812e-014
lhumerus -79.0065 -21.3649 103.802
lradius 71.7366
lwrist -1.50339
lhand -33.8226 17.3774
lfingers 7.12502
lthumb -7.00828 47.2414
rfemur 3.18748 -6.13173 21.6254
rtibia 21.9785
rfoot -165.567 20.4647
rtoes -7.96769
lfemur -54.939 6.26882 -17.0795
ltibia 79.7167
lfoot -16.0884 -4.54949
ltoes -8.5556
97
root 11.2956 17.292 22.6596 -166.916 -2.53804 181.185
lowerback 8.82669 4.63367 1.76575
upperback 3.3321 6.06226 1.34892
thorax -1.43383 2.90974 -0.186296
lowerneck -10.304 -2.36658 -10.4602
upperneck 17.5482 -4.34031 12.3555
head 7.5445 -1.91925 5.41217
rclavicle 1.03766e-013 -2.70347e-014
rhumerus -27.8629 14.391 -86.3972
rradius 120.7
rwrist 9.28939
rhand -43.1355 -13.4654
rfingers 7.12502
rthumb -15.9888 -42.8256
lclavicle 1.03766e-013 -2.70347e-014
lhumerus -82.1055 -21.813 104.717
lradius 72.2166
lwrist -0.210428
lhand -33.7108 17.4766
lfingers 7.12502
lthumb -6.9004 47.3442
rfemur 4.02328 -5.56048 21.1852
rtibia 21.2278
rfoot -164.782 19.8744
rtoes -7.25788
lfemur -55.9713 6.39354 -17.6592
ltibia 77.9817
lfoot -16.596 -4.45601
ltoes -8.75666
98
root 11.261 17.3288 22.4202 -166.581 -2.12147 181.073
lowerback 8.64411 4.81554 1.52747
upperback 3.28439 6.29158 1.20039
thorax -1.38928 3.03001 -0.215978
lowerneck -10.296 -2.38007 -10.3774
upperneck 17.406 -4.37978 12.4709
head 7.50269 -1.92237 5.43023
rclavicle 1.63003e-014 -2.94201e-014
rhumerus -26.2205 15.1347 -85.0208
rradius 123.016
rwrist 8.71999
rhand -43.012 -13.4779
rfingers 7.12502
rthumb -15.87 -42.8476
lclavicle 1.63003e-014 -2.94201e-014
lhumerus -84.9984 -22.1169 105.795
lradius 72.8379
lwrist 1.14615
lhand -33.7223 17.8005
lfingers 7.12502
lthumb -6.91155 47.6677
rfemur 4.88664 -5.06675 20.8406
rtibia 20.378
rfoot -163.801 19.1503
rtoes -8.0213
lfemur -56.822 6.37684 -18.0901
ltibia 76.1057
lfoot -16.8411 -4.70865
ltoes -9.78742
99
root 11.2157 17.3751 22.1649 -166.229 -1.58497 180.994
lowerback 8.3074 5.06456 1.38567
upperback 3.22666 6.61885 1.04126
thorax -1.25747 3.20186 -0.303069
lowerneck -10.1191 -2.41801 -10.3405
upperneck 17.1587 -4.45558 12.6167
head 7.40251 -1.94969 5.46083
rclavicle 4.17448e-014 -4.37326e-014
rhumerus -24.7765 15.62 -83.6052
rradius 124.922
rwrist 8.22449
rhand -43.2611 -13.3371
rfingers 7.12502
rthumb -16.1098 -42.6875
lclavicle 4.17448e-014 -4.37326e-014
lhumerus -87.4677 -22.2185 106.683
lradius 73.1795
lwrist 2.12738
lhand -33.9094 17.5571
lfingers 7.12502
lthumb -7.0921 47.4183
rfemur 5.73824 -4.52547 20.3863
rtibia 19.5752
rfoot -162.554 18.4086
rtoes -8.19035
lfemur -57.4278 6.40826 -18.5129
ltibia 74.1328
lfoot -16.9038 -5.12062
ltoes -9.9949
100
root 11.176 17.4134 21.9073 -166.153 -1.25733 180.656
lowerback 8.22795 5.23956 0.836598
upperback 3.23497 6.8129 0.971706
thorax -1.25902 3.29889 -0.0848789
lowerneck -10.0871 -2.49224 -10.3002
upperneck 17.1783 -4.56295 12.5629
head 7.41489 -2.00402 5.42507
rclavicle -7.63333e-014 -7.95139e-015
rhumerus -23.3337 16.1063 -82.0354
rradius 126.53
rwrist 7.78235
rhand -43.0092 -13.1765
rfingers 7.12502
rthumb -15.8673 -42.5463
lclavicle -7.63333e-014 -7.95139e-015
lhumerus -89.7339 -22.0526 107.468
lradius 73.5841
lwrist 2.23264
lhand -34.1825 17.4738
lfingers 7.12502
lthumb -7.35571 47.3259
rfemur 6.86183 -4.3593 19.7433
rtibia 18.8125
rfoot -161.348 17.5814
rtoes -7.89675
lfemur -57.566 6.13381 -19.1027
ltibia 72.1273
lfoot -16.7219 -5.69755
ltoes -10.4038
101
root 11.1371 17.4587 21.6369 -165.958 -1.05565 180.696
lowerback 7.84215 5.29692 0.850866
upperback 3.27524 6.88905 0.811872
thorax -0.983694 3.34327 -0.221582
lowerneck -10.0816 -2.45963 -10.109
upperneck 17.0429 -4.57751 12.745
head 7.37172 -1.9865 5.44952
rclavicle 3.02153e-014 1.11319e-014
rhumerus -22.0883 16.5163 -80.7851
rradius 127.773
rwrist 7.58485
rhand -43.0148 -13.4276
rfingers 7.12502
rthumb -15.8726 -42.797
lclavicle 3.02153e-014 1.11319e-014
lhumerus -91.5254 -21.8005 107.491
lradius 73.9859
lwrist 1.7306
lhand -34.3163 17.2286
lfingers 7.12502
lthumb -7.48485 47.0762
rfemur 7.73248 -4.18578 19.5101
rtibia 18.2533
rfoot -160.02 16.5969
rtoes -8.0821
lfemur -57.7015 5.94164 -19.2306
ltibia 70.1558
lfoot -16.1417 -6.58563
ltoes -10.181
102
root 11.092 17.5071 21.3609 -165.875 -0.759147 180.716
lowerback 7.6693 5.41013 0.845919
upperback 3.25382 7.0426 0.677119
thorax -0.893146 3.42463 -0.352208
lowerneck -9.98227 -2.46502 -9.98692
upperneck 16.9773 -4.63219 12.8285
head 7.33848 -2.00468 5.44991
rclavicle -7.59357e-014 -1.74931e-014
rhumerus -21.0786 16.5239 -79.5553
rradius 128.726
rwrist 7.74829
rhand -42.7285 -13.54
rfingers 7.12502
rthumb -15.5968 -42.9312
lclavicle -7.59357e-014 -1.74931e-014
lhumerus -93.0383 -21.6125 107.444
lradius 74.3353
lwrist 1.10086
lhand -34.3061 17.0302
lfingers 7.12502
lthumb -7.47502 46.8781
rfemur 8.57545 -3.74057 19.2794
rtibia 17.9204
rfoot -158.763 15.4113
rtoes -8.39609
lfemur -57.4855 5.64806 -19.3282
ltibia 68.2407
lfoot -15.4913 -7.40683
ltoes -10.2732
103
root 11.0502 17.5602 21.0797 -165.707 -0.635831 180.939
lowerback 7.37497 5.46263 1.02806
upperback 3.22628 7.12851 0.612631
thorax -0.72822 3.47401 -0.494579
lowerneck -9.9734 -2.49239 -9.81523
upperneck 16.9458 -4.70952 12.8586
head 7.33351 -2.03072 5.42169
rclavicle -1.23246e-014 0
rhumerus -20.3214 16.6288 -78.4765
rradius 129.364
rwrist 7.51255
rhand -42.777 -13.5308
rfingers 7.12502
rthumb -15.6436 -42.9183
lclavicle -1.23246e-014 0
lhumerus -93.8724 -21.2934 107.188
lradius 74.4843
lwrist 1.00286
lhand -34.4123 16.587
lfingers 7.12502
lthumb -7.57754 46.4312
rfemur 9.13253 -3.62505 19.2894
rtibia 17.8474
rfoot -157.046 14.1321
rtoes -8.67573
lfemur -57.2331 5.35769 -19.0914
ltibia 66.4302
lfoot -14.623 -8.37528
ltoes -9.4881
104
root 10.9947 17.601 20.7889 -165.579 -0.358442 180.775
lowerback 7.17981 5.5878 0.686617
upperback 3.11558 7.28638 0.611194
thorax -0.775648 3.55587 -0.310447
lowerneck -9.8538 -2.55929 -9.95656
upperneck 16.9878 -4.80278 12.8778
head 7.34047 -2.0886 5.44485
rclavicle -2.94201e-014 2.54444e-014
rhumerus -20.1099 16.7457 -77.395
rradius 129.81
rwrist 6.96579
rhand -42.61 -13.4703
rfingers 7.12502
rthumb -15.4827 -42.8703
lclavicle -2.94201e-014 2.54444e-014
lhumerus -94.6727 -20.856 107.166
lradius 74.7135
lwrist 0.630703
lhand -34.4459 16.4515
lfingers 7.12502
lthumb -7.60993 46.2945
rfemur 9.5389 -3.49508 18.751
rtibia 18.146
rfoot -155.439 13.032
rtoes -9.90301
lfemur -56.7093 5.14238 -19.5025
ltibia 64.7871
lfoot -14.1989 -8.8491
ltoes -10.0548
105
root 10.9476 17.6483 20.4857 -165.382 -0.219052 181.252
lowerback 6.79153 5.61881 0.964997
upperback 3.00444 7.35567 0.708571
thorax -0.653604 3.5976 -0.333563
lowerneck -9.7616 -2.5487 -9.90734
upperneck 16.9357 -4.79707 12.8589
head 7.30462 -2.08868 5.42938
rclavicle 5.1684e-015 -1.19271e-014
rhumerus -19.9693 16.8901 -76.6065
rradius 129.955
rwrist 6.66359
rhand -41.8391 -13.6817
rfingers 7.12502
rthumb -14.7401 -43.1376
lclavicle 5.1684e-015 -1.19271e-014
lhumerus -94.8972 -20.3606 106.681
lradius 74.8984
lwrist 0.704186
lhand -34.3743 16.1012
lfingers 7.12502
lthumb -7.54091 45.9468
rfemur 9.59597 -3.28051 19.0321
rtibia 18.8197
rfoot -153.818 11.6138
rtoes -11.1497
lfemur -56.1543 5.14122 -19.1408
ltibia 63.3298
lfoot -13.6819 -9.15959
ltoes -9.84071
